<svg xmlns="http://www.w3.org/2000/svg" xmlns:xlink="http://www.w3.org/1999/xlink" viewBox="0 0 215.01 42.06"><defs><style>.cls-1{fill:url(#_7);}.cls-2{fill:#91bee7;}.cls-3{fill:url(#_5);}.cls-4{fill:url(#_6);}.cls-5{fill:url(#linear-gradient);}.cls-10,.cls-16,.cls-17,.cls-18,.cls-19,.cls-20,.cls-21,.cls-22,.cls-6,.cls-7,.cls-8,.cls-9{fill:none;stroke-width:0.15px;}.cls-6{stroke:#f39200;}.cls-7{stroke:#f7a600;}.cls-8{stroke:#fe0;}.cls-9{stroke:#95c11f;}.cls-10{stroke:#91bee7;}.cls-11{fill:url(#_4);}.cls-12{fill:url(#_5-2);}.cls-13{fill:url(#_2);}.cls-14{fill:url(#_3);}.cls-15{fill:url(#_1);}.cls-16{stroke:#5075b9;}.cls-17{stroke:#963683;}.cls-18{stroke:#975ba1;}.cls-19{stroke:#9ed9f8;}.cls-20{stroke:#e6332a;}.cls-21{stroke:#e94e1b;}.cls-22{stroke:#fff26e;}.cls-23{font-size:5.37px;fill:#b2b2b2;font-family:KlavikaLight-OSF, KlavikaLight OSF;}</style><linearGradient id="_7" x1="189.66" y1="28.11" x2="214.93" y2="28.11" gradientUnits="userSpaceOnUse"><stop offset="0.28" stop-color="#72b62b" stop-opacity="0.9"/><stop offset="0.73" stop-color="#47ac34" stop-opacity="0.96"/><stop offset="0.74" stop-color="#4eb045" stop-opacity="0.95"/><stop offset="0.78" stop-color="#65bc84" stop-opacity="0.93"/><stop offset="0.81" stop-color="#78c7b5" stop-opacity="0.92"/><stop offset="0.84" stop-color="#86ced9" stop-opacity="0.91"/><stop offset="0.87" stop-color="#8ed2ee" stop-opacity="0.9"/><stop offset="0.88" stop-color="#91d4f6" stop-opacity="0.9"/><stop offset="1" stop-color="#83b9e5"/></linearGradient><linearGradient id="_5" x1="143.26" y1="20.77" x2="175.99" y2="20.77" gradientUnits="userSpaceOnUse"><stop offset="0.77" stop-color="#fcea10" stop-opacity="0.9"/><stop offset="1" stop-color="#fcea10"/></linearGradient><linearGradient id="_6" x1="165.55" y1="21.44" x2="208.33" y2="21.44" gradientUnits="userSpaceOnUse"><stop offset="0.55" stop-color="#acca2e" stop-opacity="0.83"/><stop offset="0.56" stop-color="#acca32" stop-opacity="0.84"/><stop offset="0.65" stop-color="#aacb4d" stop-opacity="0.93"/><stop offset="0.72" stop-color="#a8cb5d" stop-opacity="0.98"/><stop offset="0.78" stop-color="#a8cb63"/><stop offset="0.79" stop-color="#9ec75a"/><stop offset="0.84" stop-color="#7bba39"/><stop offset="0.87" stop-color="#6eb52c"/><stop offset="0.93" stop-color="#37a133"/><stop offset="0.98" stop-color="#149437"/><stop offset="1" stop-color="#078f39"/></linearGradient><linearGradient id="linear-gradient" x1="114.78" y1="21.27" x2="153.56" y2="21.27" gradientUnits="userSpaceOnUse"><stop offset="0.55" stop-color="#e94e1b" stop-opacity="0.83"/><stop offset="0.57" stop-color="#eb5a1e" stop-opacity="0.85"/><stop offset="0.63" stop-color="#f18027" stop-opacity="0.91"/><stop offset="0.69" stop-color="#f59b2e" stop-opacity="0.96"/><stop offset="0.74" stop-color="#f8ac32" stop-opacity="0.99"/><stop offset="0.78" stop-color="#f9b233"/><stop offset="0.87" stop-color="#f9b233"/><stop offset="0.89" stop-color="#f9ba2e"/><stop offset="0.96" stop-color="#fbdd18"/><stop offset="1" stop-color="#fcea10"/></linearGradient><linearGradient id="_4" x1="84.2" y1="28.07" x2="109.47" y2="28.07" gradientUnits="userSpaceOnUse"><stop offset="0.61" stop-color="#e6381c" stop-opacity="0.85"/><stop offset="0.79" stop-color="#f9b233"/><stop offset="0.9" stop-color="#f9b233"/><stop offset="0.91" stop-color="#f9ba2e"/><stop offset="0.97" stop-color="#fbdd18"/><stop offset="1" stop-color="#fcea10"/></linearGradient><linearGradient id="_5-2" x1="90.61" y1="9.43" x2="109.46" y2="9.43" xlink:href="#_5"/><linearGradient id="_2" x1="37.8" y1="20.73" x2="70.53" y2="20.73" gradientUnits="userSpaceOnUse"><stop offset="0.01" stop-color="#1d71b8"/><stop offset="0.03" stop-color="#206fb6" stop-opacity="0.99"/><stop offset="0.3" stop-color="#3c59a5" stop-opacity="0.87"/><stop offset="0.45" stop-color="#46519f" stop-opacity="0.83"/><stop offset="0.5" stop-color="#53509e" stop-opacity="0.85"/><stop offset="0.59" stop-color="#654f9c" stop-opacity="0.88"/><stop offset="0.66" stop-color="#6c4f9b" stop-opacity="0.9"/><stop offset="1" stop-color="#b95c9f"/></linearGradient><linearGradient id="_3" x1="60.08" y1="21.4" x2="102.87" y2="21.4" gradientUnits="userSpaceOnUse"><stop offset="0.01" stop-color="#bf64a4"/><stop offset="0.08" stop-color="#c65b8d" stop-opacity="0.97"/><stop offset="0.25" stop-color="#d74558" stop-opacity="0.89"/><stop offset="0.38" stop-color="#e23837" stop-opacity="0.85"/><stop offset="0.45" stop-color="#e6332a" stop-opacity="0.83"/><stop offset="0.54" stop-color="#e62b31" stop-opacity="0.87"/><stop offset="0.66" stop-color="#e62537" stop-opacity="0.9"/><stop offset="0.99" stop-color="#e94e1b"/></linearGradient><linearGradient id="_1" x1="0.08" y1="21.23" x2="48.1" y2="21.23" gradientUnits="userSpaceOnUse"><stop offset="0" stop-color="#9dd7ec"/><stop offset="0.18" stop-color="#99d1e9"/><stop offset="0.41" stop-color="#8ec1e1"/><stop offset="0.66" stop-color="#7ba7d3"/><stop offset="0.94" stop-color="#6183c0"/><stop offset="1" stop-color="#5a79bb"/></linearGradient></defs><g id="Capa_2" data-name="Capa 2"><g id="Capa_1-2" data-name="Capa 1"><path class="cls-1" d="M214.92,18.81a26.11,26.11,0,0,1-6.63,18.56v0c-8.85,0-14.64-2.89-18.63-7,12,7.89,24-2.87,24-11.58Z"/><path class="cls-2" d="M214.63,15.18a31.06,31.06,0,0,1,.29,3.63H213.7a8.16,8.16,0,0,0-.09-1.31c-.61-4.13-5.6-8.34-10.27-8.59a19.88,19.88,0,0,0-6.51.95c0-3.63-1.58-6.29-.17-8.7C208.56-2.95,213.42,5.68,214.63,15.18Z"/><path class="cls-3" d="M176,9.66c-2.4-4.67-13.43,15.58-22.43,27.2a30.44,30.44,0,0,1-10.3-6.44c8.1,5.67,16-10.15,22.3-19.46C169.86,4.65,173.47,1.3,176,9.66Z"/><path class="cls-4" d="M174.93.94c6,2.3,5.09,19.49,14.7,29.44l0,0c4,4.12,9.78,7,18.63,7h0C202.58,42.93,198.1,42,198.1,42c-13.51-1.16-15.39-14-19-25.55-1.35-4.34-3-6-3.12-6.75-2.52-8.36-6.13-5-10.43,1.3h0C168.82,6.13,173.35.07,174.93.94Z"/><path class="cls-5" d="M153.49,36.94c-1.86,3-5.77,4.44-8,3.65-1.8-.64-2.86-1-4.85-4.07-3-4.56-3.07-6.34-4.38-9.71-1.46-3.8-3.21-12.38-7.86-15.12-5.51-3.26-10.69.27-12.87,3.93,0-1.84-.7-4.86-.78-6.22-.1-2,.4-2,.2-2,10.32-11.18,17.72-4.95,21.66,12.21a24,24,0,0,0,6.61,10.85,30.44,30.44,0,0,0,10.3,6.44Z"/><path class="cls-6" d="M136.65,19.57C132.71,2.41,125.31-3.82,115,7.36"/><path class="cls-7" d="M136.65,19.57a24,24,0,0,0,6.61,10.85,30.44,30.44,0,0,0,10.3,6.44h0"/><path class="cls-8" d="M143,30.21l.3.21c8.1,5.67,16-10.15,22.3-19.46,4.3-6.31,7.91-9.66,10.43-1.3"/><path class="cls-7" d="M115.57,15.62c2.18-3.66,7.36-7.19,12.87-3.93,4.65,2.74,6.4,11.32,7.86,15.12,1.31,3.37,1.37,5.15,4.38,9.71,2,3,3,3.43,4.85,4.07,2.19.79,6.1-.61,8-3.65"/><path class="cls-6" d="M115.57,15.62c0-1.84-.7-4.86-.78-6.22-.1-2,.4-2,.2-2"/><path class="cls-9" d="M189.66,30.4c4,4.12,9.78,7,18.63,7h.21"/><path class="cls-9" d="M174.93.94c6,2.3,5.09,19.49,14.7,29.44"/><path class="cls-9" d="M189.63,30.38l0,0c12,7.89,24-2.87,24-11.58"/><path class="cls-10" d="M196.83,9.94V9.87c0-3.63-1.58-6.29-.17-8.7"/><path class="cls-10" d="M196.66,1.17c11.9-4.12,16.76,4.51,18,14a31.06,31.06,0,0,1,.29,3.63,26.11,26.11,0,0,1-6.63,18.56"/><path class="cls-11" d="M109.46,18.77a26.2,26.2,0,0,1-6.63,18.56v0c-8.85,0-14.64-2.9-18.63-7,12,7.89,24-2.87,24-11.58Z"/><path class="cls-12" d="M109.17,15.14a33.4,33.4,0,0,1,.29,3.63h-1.22a8.08,8.08,0,0,0-.09-1.31c-.61-4.13-5.61-8.35-10.27-8.59a19.84,19.84,0,0,0-6.51.95c0-3.63-1.59-6.29-.17-8.7C103.09-3,108,5.64,109.17,15.14Z"/><path class="cls-13" d="M70.53,9.62C68.13,5,57.1,25.2,48.1,36.82a30.2,30.2,0,0,1-10.3-6.45c8.1,5.68,16-10.14,22.3-19.45C64.39,4.6,68,1.26,70.53,9.62Z"/><path class="cls-14" d="M60.08,10.91C63.36,6.09,67.89,0,69.46.9c6.06,2.3,5.1,19.49,14.7,29.43l0,0c4,4.11,9.78,7,18.63,7h0c-5.75,5.52-10.23,4.55-10.23,4.55-13.51-1.16-15.39-14-19-25.55-1.35-4.34-2.94-6-3.11-6.75-2.52-8.36-6.14-5-10.43,1.3Z"/><path class="cls-15" d="M48,36.9c-1.86,3-5.78,4.44-8,3.65-1.8-.64-2.86-1-4.85-4.07-3-4.56-3.07-6.34-4.38-9.71C29.38,23,27.63,14.39,23,11.65c-5.51-3.26-10.78-.09-12.88,3.93l-8,16.79-2-3.61L4.34,16.89l3-6.39L9.53,7.32c10.32-11.18,17.72-5,21.65,12.21A24.07,24.07,0,0,0,37.8,30.37a30.2,30.2,0,0,0,10.3,6.45Z"/><path class="cls-16" d="M31.18,19.53A24.07,24.07,0,0,0,37.8,30.37a30.2,30.2,0,0,0,10.3,6.45h0"/><path class="cls-17" d="M37.5,30.16a2,2,0,0,0,.3.21c8.1,5.68,16-10.14,22.3-19.45C64.39,4.6,68,1.26,70.53,9.62"/><path class="cls-18" d="M48,36.9l.07-.08c9-11.62,20-31.87,22.43-27.2"/><path class="cls-19" d="M48,36.9c-1.86,3-5.78,4.44-8,3.65-1.8-.64-2.86-1-4.85-4.07-3-4.56-3.07-6.34-4.38-9.71C29.38,23,27.63,14.39,23,11.65c-5.51-3.26-10.78-.09-12.88,3.93l-8,16.79-2-3.61L4.34,16.89l3-6.39L9.53,7.32c10.32-11.18,17.72-5,21.65,12.21"/><path class="cls-20" d="M70.53,9.62c.17.78,1.76,2.41,3.11,6.75,3.61,11.57,5.49,24.39,19,25.55,0,0,4.48,1,10.23-4.55l.12-.12"/><path class="cls-21" d="M84.2,30.36c4,4.11,9.78,7,18.63,7H103"/><path class="cls-21" d="M69.46.9c6.06,2.3,5.1,19.49,14.7,29.43"/><path class="cls-21" d="M84.16,30.33l0,0c12,7.89,24-2.87,24-11.58"/><path class="cls-22" d="M91.37,9.9V9.83c0-3.63-1.59-6.29-.17-8.7"/><path class="cls-22" d="M91.2,1.13c11.89-4.12,16.75,4.51,18,14a33.4,33.4,0,0,1,.29,3.63,26.2,26.2,0,0,1-6.63,18.56"/><text class="cls-23" transform="translate(194.4 22.96)">BAR</text></g></g></svg>