<?xml version="1.0" standalone="no"?>
<!DOCTYPE svg PUBLIC "-//W3C//DTD SVG 20010904//EN"
 "http://www.w3.org/TR/2001/REC-SVG-20010904/DTD/svg10.dtd">
<svg version="1.0" xmlns="http://www.w3.org/2000/svg"
 width="275.000000pt" height="183.000000pt" viewBox="0 0 275.000000 183.000000"
 preserveAspectRatio="xMidYMid meet">

<g transform="translate(0.000000,183.000000) scale(0.100000,-0.100000)"
fill="#000000" stroke="none">
<path d="M2 1753 l3 -78 96 3 c95 2 97 3 135 37 21 19 36 35 33 36 -56 9 -63
19 -15 19 31 0 37 3 32 16 -3 9 -6 22 -6 30 0 11 -26 14 -140 14 l-141 0 3
-77z"/>
<path d="M415 1820 c3 -5 13 -10 21 -10 8 0 14 -4 14 -10 0 -5 7 -10 15 -10
19 0 19 7 1 26 -16 16 -61 20 -51 4z"/>
<path d="M584 1823 c4 -4 -22 -20 -56 -35 -47 -22 -59 -31 -48 -38 13 -8 13
-9 0 -13 -8 -3 -33 -10 -55 -16 -22 -7 -76 -22 -120 -35 -44 -13 -92 -26 -106
-30 -20 -4 -26 -11 -25 -28 3 -30 -5 -43 -15 -27 -4 7 -11 10 -15 6 -4 -4 -2
-13 4 -19 18 -18 15 -28 -8 -28 -11 0 -23 7 -26 15 -5 13 -9 13 -22 3 -13 -11
-15 -10 -9 5 5 13 1 17 -19 17 -14 0 -22 4 -19 10 3 6 -2 10 -12 10 -14 0 -15
2 -5 9 10 6 9 10 -7 14 -21 5 -21 5 -21 -339 0 -337 0 -344 20 -344 11 0 20 4
20 10 0 5 10 18 21 29 21 20 22 20 38 1 9 -11 31 -20 51 -20 79 -4 79 -3 0 70
-59 55 -69 68 -45 59 24 -8 32 -7 41 5 6 8 29 18 52 22 34 5 49 2 89 -21 26
-16 50 -31 53 -35 3 -4 32 -7 65 -7 84 -1 231 -43 327 -94 10 -5 24 -9 31 -9
7 0 23 -9 35 -20 12 -12 22 -16 22 -10 0 5 11 10 24 10 18 0 25 -6 28 -22 4
-28 31 -26 62 4 63 61 153 95 182 69 24 -22 73 -30 101 -16 15 7 53 16 83 20
30 4 73 13 96 20 22 8 71 15 107 17 l67 3 39 -43 40 -43 55 32 c46 25 67 31
113 30 31 0 61 -6 67 -12 8 -9 5 -10 -13 -6 -14 3 -29 0 -38 -8 -12 -13 -10
-14 19 -10 33 5 33 5 5 -6 -19 -8 -36 -8 -57 -1 -16 6 -32 7 -35 2 -3 -4 -15
-6 -28 -3 -12 3 -19 3 -15 -2 7 -8 66 -14 153 -17 28 0 44 -3 38 -5 -7 -3 -13
-11 -13 -18 0 -16 -25 -26 -44 -19 -8 3 -17 1 -20 -4 -3 -5 13 -12 35 -16 30
-5 39 -10 35 -21 -7 -19 -4 -19 39 5 20 11 42 20 50 20 8 0 15 6 15 14 0 7 10
21 23 30 l22 17 -27 -6 c-17 -3 -28 -1 -28 5 0 7 -9 9 -22 5 -20 -5 -21 -5 -5
5 13 9 31 7 75 -5 65 -19 72 -26 72 -76 0 -32 3 -36 28 -37 15 -1 43 -3 62 -5
19 -2 53 -5 75 -6 32 -2 36 -4 20 -11 -19 -8 -19 -9 1 -9 14 -1 24 7 27 20 5
20 11 21 56 16 52 -6 115 -34 168 -74 l31 -24 -2 -104 c-3 -114 -16 -148 -62
-165 -35 -14 -38 -13 -18 8 10 9 25 17 33 17 9 0 16 5 16 12 0 6 3 15 8 19 11
11 9 66 -3 59 -6 -3 -14 4 -18 16 -6 15 -11 18 -16 11 -4 -7 -19 -12 -32 -12
-23 0 -21 4 25 40 28 22 51 45 51 51 0 6 -5 7 -10 4 -9 -6 -12 1 -9 22 1 11
-31 24 -44 17 -6 -4 -9 -4 -5 1 16 17 -32 44 -70 39 -83 -10 -87 -10 -84 9 3
17 -13 18 -65 2 -7 -2 -15 0 -18 5 -4 6 -19 10 -35 10 -16 0 -41 5 -56 10 -23
9 -25 9 -15 -4 10 -11 9 -15 -5 -18 -13 -2 -18 -13 -18 -43 -1 -35 -5 -42 -41
-62 -22 -12 -43 -23 -46 -23 -4 0 -12 14 -19 31 -9 20 -16 27 -23 20 -7 -7 -6
-16 4 -28 13 -16 12 -17 -3 -4 -15 11 -21 11 -33 1 -8 -7 -15 -17 -15 -23 0
-5 -8 -16 -17 -23 -17 -12 -16 -13 5 -14 23 0 23 -1 -10 -33 -38 -37 -52 -38
-36 -2 6 13 16 21 22 18 6 -4 3 3 -6 14 -10 11 -18 27 -18 36 0 9 -7 17 -15
17 -8 0 -15 -5 -15 -11 0 -8 -4 -8 -14 0 -11 9 -15 9 -19 -1 -4 -10 -7 -11
-18 0 -10 9 -10 12 0 12 7 0 11 6 8 13 -6 17 12 49 24 42 5 -4 23 3 39 15 23
17 30 18 30 7 0 -8 -7 -17 -15 -21 -15 -5 -16 -31 -2 -53 6 -10 14 -9 33 3 23
16 24 18 8 35 -15 17 -14 19 20 33 25 11 34 19 30 30 -3 9 -12 16 -19 16 -8 0
-11 8 -9 23 4 21 4 21 -6 2 -12 -21 -90 -75 -109 -75 -6 0 -18 -11 -27 -25
-10 -16 -26 -25 -43 -25 -19 0 -22 -3 -12 -9 11 -7 8 -13 -14 -27 -15 -10 -36
-18 -46 -19 -20 -2 -89 -51 -89 -64 0 -5 -12 -8 -26 -9 -20 0 -25 4 -21 19 3
11 1 16 -4 13 -6 -3 -9 -13 -7 -22 3 -13 -8 -19 -47 -27 -27 -6 -63 -8 -80 -6
l-30 4 39 17 c21 10 33 19 27 21 -6 2 1 9 15 16 25 11 26 11 20 -12 -4 -15 -2
-25 4 -25 6 0 8 5 4 12 -5 7 -2 9 9 5 21 -8 27 24 7 41 -13 11 -11 11 8 2 13
-7 35 -9 48 -6 14 4 24 2 24 -4 0 -6 10 -2 22 10 12 11 27 20 32 20 6 0 4 5
-6 10 -10 6 -15 21 -14 38 1 17 -3 29 -10 29 -7 0 -9 -7 -6 -15 4 -12 1 -14
-12 -9 -10 4 -20 7 -22 7 -2 0 1 9 8 19 7 11 15 18 19 15 4 -2 10 0 14 6 3 5
2 10 -3 10 -10 0 -9 21 3 62 4 16 12 25 17 22 7 -4 7 0 0 12 -5 11 -7 25 -4
33 3 8 0 11 -6 7 -6 -3 -14 0 -19 7 -4 8 -26 17 -48 21 l-40 7 27 -18 c33 -21
32 -41 -2 -66 l-25 -19 25 8 c23 6 24 6 10 -12 -14 -18 -14 -18 3 -5 9 8 20
11 23 8 8 -8 -5 -27 -19 -27 -7 -1 -28 -24 -47 -53 -38 -56 -147 -167 -164
-167 -6 0 -4 5 4 10 12 8 11 10 -6 10 -12 0 -25 10 -32 25 -7 15 -20 25 -32
25 -21 0 -27 -15 -10 -25 6 -3 10 -12 10 -18 -1 -7 -5 -6 -13 4 -12 16 -61 34
-52 19 3 -5 -2 -13 -12 -19 -10 -5 -18 -19 -18 -32 0 -12 -6 -24 -12 -26 -7
-3 -13 0 -13 6 0 6 5 11 10 11 6 0 10 4 10 10 0 5 -15 9 -32 7 -23 -2 -33 -8
-33 -19 0 -9 -4 -20 -9 -25 -5 -4 -6 -3 -2 4 4 7 2 13 -3 13 -15 0 -14 17 2
32 8 7 12 20 9 30 -3 14 0 17 12 12 19 -7 21 7 4 25 -11 11 -9 11 10 1 22 -11
23 -10 13 8 -9 16 -7 19 7 18 9 0 17 5 18 12 1 6 2 14 3 17 0 3 10 1 21 -5 26
-14 26 2 -1 18 -16 11 -18 16 -9 27 7 8 10 21 7 30 -4 8 -2 17 3 20 12 7 13
55 2 55 -4 0 -29 18 -56 41 l-49 40 -23 -28 c-12 -15 -20 -32 -17 -36 3 -4 0
-14 -6 -21 -9 -10 -7 -15 5 -20 9 -4 15 -9 12 -12 -3 -2 -16 0 -30 5 -14 5
-30 6 -37 1 -9 -5 -2 -11 20 -19 18 -6 30 -13 27 -16 -3 -3 -18 -1 -33 5 -23
9 -26 8 -17 -3 7 -8 8 -17 4 -21 -4 -4 0 -6 8 -4 8 2 14 -3 13 -9 -2 -7 1 -13
6 -13 14 0 20 -38 7 -44 -7 -3 -7 -5 2 -5 38 -3 -15 -101 -55 -101 -15 1 -13
5 10 25 27 24 27 25 11 50 -15 22 -15 25 -1 19 11 -4 15 0 14 14 -1 13 -6 18
-16 14 -10 -4 -12 -1 -6 8 5 8 3 11 -6 8 -15 -5 -19 -34 -7 -60 10 -20 -8 -34
-25 -20 -7 5 -23 8 -37 7 -14 -1 -30 2 -37 7 -7 5 -14 5 -17 -1 -4 -6 -13 -8
-21 -5 -18 7 -55 -13 -55 -31 0 -8 -6 -12 -14 -9 -9 3 -12 12 -9 22 5 12 2 11
-14 -4 -11 -10 -18 -23 -15 -28 2 -4 -5 -5 -16 -2 -16 5 -25 0 -38 -19 -9 -14
-19 -23 -22 -21 -7 7 -62 -23 -62 -33 0 -5 -18 -12 -39 -16 -22 -4 -42 -13
-45 -21 -4 -10 -18 -13 -50 -10 -26 2 -65 -3 -97 -14 -30 -11 -55 -15 -57 -9
-2 5 -9 6 -15 3 -17 -8 37 39 59 52 16 10 14 11 -15 8 -21 -2 -38 1 -43 8 -6
10 -8 10 -8 -1 0 -8 -10 -25 -22 -38 l-22 -23 22 -16 c19 -13 22 -23 19 -54
-2 -22 -1 -43 2 -49 11 -16 121 -44 194 -49 37 -2 67 -7 67 -11 0 -4 15 -8 33
-9 76 -3 97 -6 97 -14 0 -4 6 -6 13 -4 6 1 9 1 4 -1 -4 -3 -5 -9 -1 -14 3 -5
13 -5 25 2 25 13 59 3 60 -19 0 -11 2 -13 6 -4 4 10 8 10 19 1 10 -8 14 -8 14
0 0 18 20 12 21 -6 0 -13 3 -12 10 6 7 18 12 21 23 12 7 -6 34 -10 59 -8 46 4
69 -3 66 -19 -3 -21 14 -54 29 -54 12 0 13 -3 5 -11 -9 -9 -6 -17 13 -31 18
-15 23 -26 18 -40 -5 -18 -3 -20 19 -14 22 5 27 1 36 -26 6 -17 11 -32 11 -33
0 -2 -10 -6 -22 -10 -20 -6 -21 -8 -5 -12 11 -3 24 3 31 13 9 11 15 13 20 6 4
-6 13 -9 21 -5 21 7 19 21 -2 19 -10 0 -19 7 -21 17 -3 15 2 18 25 15 26 -3
28 -1 25 30 -2 30 -1 31 18 20 13 -9 20 -24 20 -45 0 -22 5 -33 14 -33 14 0
16 23 3 36 -12 13 -8 24 7 18 8 -3 16 -20 18 -37 l4 -32 12 28 c12 27 49 40
39 13 -4 -10 -1 -13 9 -9 7 3 14 0 14 -6 0 -6 13 -11 29 -11 25 0 28 -3 24
-22 -4 -22 -4 -22 11 -4 14 17 16 17 31 2 15 -14 79 -16 646 -16 l629 0 0 915
0 915 -1087 0 c-597 0 -1083 -3 -1079 -7z m75 -22 c8 -6 11 -16 6 -31 -6 -18
-1 -27 21 -45 57 -46 -8 -62 -75 -18 -43 28 -42 45 1 59 13 4 18 12 15 25 -5
20 9 25 32 10z m142 -47 c15 -9 -10 -34 -35 -34 -19 1 -56 21 -56 31 0 7 81
10 91 3z m1584 -126 c33 -11 71 -31 84 -45 l23 -25 -23 -16 c-13 -9 -31 -17
-39 -17 -21 0 -26 -56 -6 -67 25 -14 20 -63 -9 -82 -24 -16 -35 -46 -16 -46
16 0 22 18 9 23 -7 3 -4 6 8 6 11 1 26 7 33 14 10 10 12 9 9 -3 -2 -10 4 -14
20 -13 12 2 22 -1 22 -7 0 -21 -24 -59 -45 -70 -30 -16 -66 -66 -69 -94 -3
-19 2 -22 32 -22 43 1 53 -19 18 -35 -20 -10 -24 -17 -19 -39 7 -40 -10 -44
-46 -11 -17 16 -31 25 -31 21 0 -5 -9 -11 -20 -14 -11 -3 -29 -9 -40 -12 -13
-3 -20 -1 -20 8 0 8 9 21 20 31 25 21 25 29 -2 46 -19 12 -24 11 -38 -6 -9
-12 -32 -28 -51 -38 -19 -9 -43 -27 -54 -40 l-20 -24 -25 21 c-15 12 -20 23
-13 25 28 10 55 43 49 60 -6 15 -16 8 -59 -40 -29 -31 -55 -57 -58 -57 -3 0
-4 37 -3 83 1 67 -3 90 -22 128 -12 25 -24 54 -26 65 -1 10 -12 28 -23 39 -11
12 -28 32 -38 45 l-17 25 6 -32 c7 -40 -7 -43 -27 -7 -18 34 -126 134 -145
134 -8 0 -33 9 -55 21 -37 19 -47 19 -108 9 -73 -13 -97 -28 -125 -82 -10 -21
-23 -35 -28 -32 -5 3 -16 0 -25 -7 -8 -7 -25 -18 -36 -24 -35 -17 -48 -54 -31
-86 12 -25 12 -30 -2 -44 -9 -9 -23 -14 -32 -10 -8 3 -21 -3 -29 -15 -16 -22
-33 -27 -33 -8 0 6 -8 20 -17 30 -15 16 -42 81 -43 99 0 6 21 15 60 25 8 2 35
6 60 9 48 5 93 35 53 35 -12 0 -34 -5 -50 -11 -15 -6 -46 -12 -68 -14 -48 -3
-103 -22 -127 -42 -15 -13 -19 -11 -38 28 -46 88 -125 138 -225 141 -37 2 -69
7 -72 12 -4 6 28 6 83 2 49 -4 143 -9 209 -11 66 -2 127 -4 135 -4 8 0 38 0
65 0 28 0 86 -4 130 -9 71 -9 82 -8 100 7 41 37 238 67 490 77 94 3 188 9 210
14 56 10 149 1 220 -22z m-2095 -48 c0 -5 -4 -10 -9 -10 -6 0 -13 5 -16 10 -3
6 1 10 9 10 9 0 16 -4 16 -10z m-90 -43 c0 -10 -4 -15 -10 -12 -5 3 -10 18
-10 33 0 21 2 24 10 12 5 -8 10 -23 10 -33z m525 34 c-6 -5 -23 -12 -40 -16
-29 -6 -29 -6 -11 9 21 17 67 23 51 7z m-649 -42 c4 -6 9 -35 11 -64 4 -48 2
-54 -17 -60 -24 -8 -60 18 -60 44 0 42 22 91 40 91 10 0 22 -5 26 -11z m554
-29 c-11 -22 -26 -40 -33 -41 -24 -1 -110 -120 -119 -165 -10 -45 -16 -51 -34
-35 -14 14 -127 41 -172 41 -60 0 -60 17 1 44 64 28 120 81 138 131 14 37 33
46 43 20 5 -14 8 -14 31 1 19 13 37 15 75 10 42 -6 52 -4 67 14 25 29 26 25 3
-20z m758 -120 c-14 -22 -24 -19 -15 5 4 8 11 15 17 15 6 0 6 -7 -2 -20z
m-1295 -149 c19 -32 19 -31 -23 -44 -30 -9 -51 12 -47 47 8 67 29 66 70 -3z
m1033 -11 c16 0 19 -16 4 -25 -5 -3 -10 -21 -10 -38 l-1 -32 -13 24 c-7 13
-12 38 -10 55 4 48 6 52 11 34 2 -10 11 -18 19 -18z m1338 -12 c-9 -33 -13
-34 -28 -12 -11 14 -11 21 -3 26 24 16 39 9 31 -14z m-274 -162 c0 -16 -42
-46 -65 -46 -24 0 -13 22 21 41 36 22 44 23 44 5z m-245 -48 c28 -13 17 -28
-20 -27 -16 1 -16 2 5 9 24 8 24 8 3 9 -13 1 -23 6 -23 11 0 13 3 13 35 -2z
m-838 -113 c0 -8 -4 -12 -9 -9 -5 3 -6 10 -3 15 9 13 12 11 12 -6z m509 3 c-3
-21 -16 -38 -29 -38 -7 1 -6 5 4 13 9 7 14 18 12 25 -3 6 0 12 5 12 6 0 9 -6
8 -12z m-436 -68 c8 -5 12 -11 10 -14 -3 -2 -14 2 -24 10 -22 15 -10 19 14 4z
m1060 -19 c0 -5 -9 -7 -20 -4 -11 3 -20 7 -20 9 0 2 9 4 20 4 11 0 20 -4 20
-9z m-1075 -11 c3 -5 1 -10 -4 -10 -6 0 -11 5 -11 10 0 6 2 10 4 10 3 0 8 -4
11 -10z m1298 -6 c-7 -3 -9 -13 -6 -22 5 -13 3 -14 -7 -5 -14 13 -5 33 13 32
9 0 9 -2 0 -5z m-1313 -25 c0 -6 -4 -7 -10 -4 -5 3 -10 11 -10 16 0 6 5 7 10
4 6 -3 10 -11 10 -16z m-36 -38 c3 -5 -2 -15 -12 -22 -9 -7 -14 -9 -10 -5 4 5
3 15 -3 23 -9 10 -8 13 4 13 9 0 18 -4 21 -9z m531 -62 c-8 -12 -35 -12 -35 0
0 11 22 20 33 14 4 -2 5 -9 2 -14z m-691 -43 c-6 -15 -9 -13 -20 14 -19 44
-18 48 6 24 14 -13 18 -27 14 -38z m636 50 c0 -3 -4 -8 -10 -11 -5 -3 -10 -1
-10 4 0 6 5 11 10 11 6 0 10 -2 10 -4z m-790 -93 c0 -3 -6 -3 -14 0 -7 3 -19
0 -26 -6 -9 -8 -11 -9 -7 -1 4 7 0 17 -8 24 -28 24 -15 29 20 9 19 -12 35 -23
35 -26z m873 24 c3 -8 -3 -14 -14 -14 -19 -2 -25 8 -12 20 10 11 20 8 26 -6z
m-713 -17 c0 -5 -15 -17 -32 -25 l-33 -16 28 25 c31 28 37 31 37 16z m122 -27
c-35 -16 -59 -16 -68 -1 -5 7 -3 8 6 3 8 -5 18 -1 26 10 11 15 16 16 29 5 13
-10 15 -9 15 6 0 16 2 17 10 4 7 -12 3 -18 -18 -27z m-280 -35 c-9 -9 -14 -5
-22 16 -15 40 -13 43 12 18 17 -17 19 -25 10 -34z m433 32 c-3 -5 3 -10 12
-12 10 -2 13 -6 8 -10 -14 -9 -49 18 -40 31 3 6 11 9 16 5 5 -3 7 -9 4 -14z
m152 14 c-3 -3 -12 -4 -19 -1 -8 3 -5 6 6 6 11 1 17 -2 13 -5z m-372 -34 c3
-5 1 -10 -4 -10 -6 0 -11 5 -11 10 0 6 2 10 4 10 3 0 8 -4 11 -10z m1242 4
c-3 -3 -12 -4 -19 -1 -8 3 -5 6 6 6 11 1 17 -2 13 -5z m-1277 -14 c0 -5 -4
-10 -10 -10 -5 0 -10 5 -10 10 0 6 5 10 10 10 6 0 10 -4 10 -10z m177 -32 c-3
-8 -6 -5 -6 6 -1 11 2 17 5 13 3 -3 4 -12 1 -19z m-36 -71 c-10 -9 -11 -8 -5
6 3 10 9 15 12 12 3 -3 0 -11 -7 -18z m-31 -7 c0 -5 -2 -10 -4 -10 -3 0 -8 5
-11 10 -3 6 -1 10 4 10 6 0 11 -4 11 -10z m40 -134 c0 -3 -4 -8 -10 -11 -5 -3
-10 -1 -10 4 0 6 5 11 10 11 6 0 10 -2 10 -4z m-39 -20 c7 4 10 3 7 -2 -3 -5
0 -15 8 -22 11 -10 14 -10 14 0 1 8 6 6 14 -5 11 -14 15 -15 19 -5 3 7 6 8 6
2 1 -6 -8 -19 -19 -29 -11 -10 -20 -24 -20 -32 0 -7 -5 -13 -11 -13 -6 0 -8
13 -5 30 2 17 0 28 -4 25 -5 -3 -11 -1 -15 5 -4 6 -10 8 -14 5 -10 -5 -32 41
-24 49 3 3 12 1 19 -5 7 -6 19 -7 25 -3z m109 -17 c0 -5 -4 -9 -10 -9 -5 0
-10 -16 -10 -35 0 -19 5 -35 10 -35 6 0 10 -5 10 -12 0 -9 -3 -9 -12 0 -7 7
-20 12 -30 12 -10 0 -18 5 -18 10 0 6 6 10 14 10 8 0 16 13 18 30 3 17 1 30
-4 30 -4 0 -8 4 -8 9 0 5 9 7 20 4 11 -3 20 -9 20 -14z m128 -15 c-2 -12 -11
-19 -26 -18 -12 1 -22 -4 -22 -12 0 -8 -9 -14 -21 -14 -11 0 -18 -4 -15 -8 2
-4 1 -14 -3 -21 -6 -9 -11 -4 -15 15 -4 16 -13 33 -19 37 -7 5 2 6 21 3 31 -5
33 -4 26 17 -6 18 -5 20 8 10 11 -10 18 -8 32 8 20 24 40 13 34 -17z m91 22
c9 -11 8 -15 -4 -20 -9 -3 -13 -2 -10 3 3 6 -3 14 -12 20 -16 9 -16 10 -2 11
9 0 22 -6 28 -14z m14 -80 c-3 -5 0 -7 8 -4 15 5 39 -14 39 -31 0 -6 4 -11 10
-11 5 0 7 -7 4 -15 -4 -8 -10 -15 -15 -15 -4 0 -5 8 -2 17 7 17 6 17 -19 1
-26 -17 -27 -17 -57 18 -36 40 -34 52 8 50 16 -1 27 -5 24 -10z"/>
<path d="M1060 1490 c0 -5 5 -10 11 -10 5 0 7 5 4 10 -3 6 -8 10 -11 10 -2 0
-4 -4 -4 -10z"/>
<path d="M1836 1466 c6 -15 34 -30 34 -18 0 4 -9 13 -20 19 -16 11 -18 10 -14
-1z"/>
<path d="M2249 1403 c-6 -16 -26 -59 -44 -96 -29 -59 -32 -71 -21 -83 18 -18
33 -1 42 47 4 19 18 57 31 86 12 28 23 57 23 62 0 22 -21 10 -31 -16z"/>
<path d="M1230 1410 c-8 -5 -11 -12 -7 -16 4 -4 13 -2 19 4 6 6 10 14 7 16 -2
3 -11 1 -19 -4z"/>
<path d="M2347 1403 c-4 -3 -7 -11 -7 -17 0 -6 5 -5 12 2 6 6 9 14 7 17 -3 3
-9 2 -12 -2z"/>
<path d="M1255 1320 c3 -5 10 -10 16 -10 5 0 9 5 9 10 0 6 -7 10 -16 10 -8 0
-12 -4 -9 -10z"/>
<path d="M2145 1180 c3 -5 8 -10 11 -10 2 0 4 5 4 10 0 6 -5 10 -11 10 -5 0
-7 -4 -4 -10z"/>
<path d="M1405 140 c3 -5 8 -10 11 -10 2 0 4 5 4 10 0 6 -5 10 -11 10 -5 0 -7
-4 -4 -10z"/>
<path d="M1433 138 c3 -9 1 -19 -6 -22 -9 -3 -9 -5 0 -5 18 -1 23 13 11 29 -8
12 -9 12 -5 -2z"/>
<path d="M145 1640 c3 -5 8 -10 11 -10 2 0 4 5 4 10 0 6 -5 10 -11 10 -5 0 -7
-4 -4 -10z"/>
<path d="M180 951 l-175 -16 -3 -46 c-2 -35 2 -49 18 -64 17 -15 20 -16 20 -2
0 18 38 27 233 57 210 32 203 29 167 68 -24 25 -18 25 -260 3z"/>
<path d="M1497 960 c10 -11 10 -17 0 -29 -7 -10 -2 -8 11 3 12 11 22 21 22 24
0 3 -3 2 -7 -1 -3 -4 -13 -1 -22 5 -13 10 -14 10 -4 -2z"/>
<path d="M1651 934 c0 -11 3 -14 6 -6 3 7 2 16 -1 19 -3 4 -6 -2 -5 -13z"/>
<path d="M835 920 c-3 -5 -1 -10 4 -10 6 0 11 5 11 10 0 6 -2 10 -4 10 -3 0
-8 -4 -11 -10z"/>
<path d="M2040 920 c-23 -7 -23 -8 -3 -9 12 -1 25 4 28 9 3 6 5 10 3 9 -2 -1
-14 -5 -28 -9z"/>
<path d="M1450 905 c0 -7 10 -12 24 -11 28 1 26 11 -4 19 -12 3 -20 0 -20 -8z"/>
<path d="M1455 880 c-11 -5 -15 -9 -8 -9 6 -1 9 -10 6 -21 -3 -11 -10 -17 -16
-13 -6 4 -7 1 -2 -7 6 -10 12 -7 26 11 15 20 26 51 17 48 -2 0 -12 -4 -23 -9z"/>
<path d="M1521 864 c-14 -10 -21 -23 -18 -35 3 -10 1 -20 -4 -23 -5 -2 -4 -3
3 -1 7 1 12 8 11 14 -2 6 2 11 9 11 6 0 8 3 5 7 -4 3 0 15 10 25 20 22 15 23
-16 2z"/>
<path d="M1320 820 c0 -5 4 -10 9 -10 6 0 13 5 16 10 3 6 -1 10 -9 10 -9 0
-16 -4 -16 -10z"/>
<path d="M2366 821 c-4 -6 -1 -11 6 -12 7 0 4 -4 -7 -9 -16 -7 -17 -9 -3 -9
21 -1 29 11 19 28 -6 9 -11 10 -15 2z"/>
<path d="M1433 796 c9 -7 14 -16 10 -20 -4 -4 0 -4 10 0 25 9 21 21 -10 27
-24 4 -25 4 -10 -7z"/>
<path d="M1271 791 c-8 -5 -9 -11 -3 -15 5 -3 15 1 22 9 14 16 3 20 -19 6z"/>
<path d="M44 779 l-41 -10 -2 -169 c-2 -118 1 -170 9 -170 6 0 30 9 52 20 23
11 47 20 53 20 15 0 55 43 55 58 0 7 -12 18 -27 24 -16 7 -36 18 -46 27 -16
13 -15 15 13 33 53 32 63 110 19 157 -22 23 -25 23 -85 10z m81 -38 c2 -4 -9
-12 -26 -18 -28 -11 -46 -3 -35 16 7 10 54 12 61 2z"/>
<path d="M1472 770 c-7 -11 -8 -20 -3 -20 9 0 24 30 18 36 -1 2 -8 -6 -15 -16z"/>
<path d="M1376 771 c-4 -7 -5 -15 -2 -18 9 -9 19 4 14 18 -4 11 -6 11 -12 0z"/>
<path d="M1670 759 c0 -5 5 -7 10 -4 6 3 10 8 10 11 0 2 -4 4 -10 4 -5 0 -10
-5 -10 -11z"/>
<path d="M1705 705 c-22 -8 -34 -14 -27 -14 7 -1 10 -6 7 -11 -3 -6 10 -1 29
11 20 12 36 23 36 25 0 2 -1 4 -2 3 -2 -1 -21 -7 -43 -14z"/>
<path d="M628 693 c7 -3 16 -2 19 1 4 3 -2 6 -13 5 -11 0 -14 -3 -6 -6z"/>
<path d="M516 681 c-4 -6 0 -11 10 -11 13 0 14 -3 4 -15 -8 -9 -9 -15 -2 -15
19 0 25 22 9 37 -10 10 -17 11 -21 4z"/>
<path d="M568 683 c7 -3 16 -2 19 1 4 3 -2 6 -13 5 -11 0 -14 -3 -6 -6z"/>
<path d="M665 670 c-10 -11 -16 -22 -13 -25 3 -3 13 4 23 15 10 11 16 22 13
25 -3 3 -13 -4 -23 -15z"/>
<path d="M420 630 c-6 -11 -8 -20 -6 -20 3 0 10 9 16 20 6 11 8 20 6 20 -3 0
-10 -9 -16 -20z"/>
<path d="M565 620 c-3 -5 -2 -10 4 -10 5 0 13 5 16 10 3 6 2 10 -4 10 -5 0
-13 -4 -16 -10z"/>
<path d="M610 610 c-12 -8 -12 -10 -1 -10 11 0 11 -3 0 -17 -13 -16 -12 -17 3
-4 10 7 16 17 13 21 -3 5 1 11 7 13 7 3 9 6 3 6 -5 0 -17 -4 -25 -9z"/>
<path d="M273 541 c-10 -16 -9 -18 7 -14 11 3 16 11 13 19 -7 18 -6 18 -20 -5z"/>
<path d="M510 280 c-18 -11 -20 -70 -3 -70 19 0 37 -40 24 -53 -16 -16 -61 18
-54 43 3 12 0 20 -7 20 -7 0 -10 7 -7 14 7 17 -17 27 -48 22 -26 -4 -22 -19 7
-28 13 -3 16 -7 8 -7 -12 -1 -12 -3 -2 -10 20 -12 11 -44 -13 -47 -23 -3 -45
13 -45 33 0 10 6 13 17 9 11 -5 9 1 -7 16 -30 28 -73 32 -66 6 2 -10 0 -21 -5
-24 -14 -9 -10 -24 6 -24 22 0 65 -30 65 -45 0 -17 31 -28 54 -19 9 3 16 12
16 20 0 8 7 14 15 14 8 0 15 -6 15 -13 0 -17 54 -37 81 -30 21 6 49 -17 49
-39 0 -12 -34 -10 -48 4 -9 9 -12 6 -12 -15 0 -22 5 -27 24 -27 14 0 28 5 31
10 4 6 11 8 16 5 14 -9 51 5 46 18 -2 6 -14 14 -28 17 -34 8 -37 44 -4 72 l25
22 -26 23 c-20 17 -23 23 -11 23 20 0 23 16 5 23 -20 6 -38 -3 -38 -20 0 -12
-3 -13 -14 -4 -11 9 -15 7 -19 -10 -5 -20 -6 -20 -25 -2 -11 11 -15 22 -10 29
4 6 5 14 1 17 -3 4 0 13 7 22 14 17 3 20 -20 5z"/>
<path d="M694 263 c4 -7 -2 -14 -14 -18 -27 -8 -22 -40 5 -40 24 0 34 41 14
59 -9 8 -10 8 -5 -1z"/>
<path d="M230 237 c0 -13 6 -31 13 -40 10 -15 15 -16 29 -5 26 20 13 68 -18
68 -18 0 -24 -5 -24 -23z"/>
<path d="M750 256 c0 -2 7 -9 15 -16 13 -11 14 -10 9 4 -5 14 -24 23 -24 12z"/>
<path d="M390 180 c0 -5 5 -10 11 -10 5 0 7 5 4 10 -3 6 -8 10 -11 10 -2 0 -4
-4 -4 -10z"/>
<path d="M255 50 c-8 -13 -1 -24 14 -19 6 3 7 10 2 18 -6 10 -10 10 -16 1z"/>
<path d="M1026 45 c5 -11 -1 -15 -25 -15 -17 0 -31 -5 -31 -11 0 -5 4 -8 9 -5
5 4 11 1 13 -6 4 -10 10 -10 33 0 21 10 30 10 35 1 6 -8 9 -8 15 1 4 6 5 12 4
14 -45 30 -58 35 -53 21z"/>
<path d="M1232 40 c0 -14 2 -19 5 -12 2 6 2 18 0 25 -3 6 -5 1 -5 -13z"/>
<path d="M1250 15 c0 -8 7 -15 15 -15 9 0 12 6 9 15 -8 19 -24 19 -24 0z"/>
<path d="M1350 26 c0 -2 7 -9 15 -16 12 -10 15 -10 15 4 0 9 -7 16 -15 16 -8
0 -15 -2 -15 -4z"/>
</g>
</svg>
